Blow (2001) [BDRip720p][Nautilus-BT]
Join www.nautilus-bt.org

[img]http://img9.imageshack.us/img9/181/1040front.jpg[/img]

Link IMDb : http://www.imdb.com/title/tt0221027/

The story of George Jung, the man who established the American cocaine market in the 1970s.

[img]http://img151.imageshack.us/img151/5918/blow2001bdrip720pitaeng.jpg[/img]

[img]http://img9.imageshack.us/img9/5918/blow2001bdrip720pitaeng.jpg[/img]

[img]http://img706.imageshack.us/img706/5918/blow2001bdrip720pitaeng.jpg[/img]

[img]http://img822.imageshack.us/img822/5918/blow2001bdrip720pitaeng.jpg[/img]

[img]http://img192.imageshack.us/img192/5918/blow2001bdrip720pitaeng.jpg[/img]

[img]http://img130.imageshack.us/img130/5918/blow2001bdrip720pitaeng.jpg[/img]

Italian title : Blow
Original title : Blow
Release date : 2001
Genre : drama
Country : USA
Written by : David McKenna - Nick Cassavetes
Directed by : Ted Demme


Languages : Italian - English
Subtitle : Italian
Subtitle deaf : English
Chapters : yes

[img]http://img204.imageshack.us/img204/9363/blowquantanalyzer.png[/img]

General
Complete name                    : Blow (2001) [BDRip720p Ita-Eng] by Pitt@Sk8.mkv
Format                           : Matroska
File size                        : 4.38 GiB
Duration                         : 2h 3mn
Overall bit rate                 : 5 074 Kbps
Encoded date                     : UTC 2011-01-30 12:50:32
Writing application              : mkvmerge v4.4.0 ('Die Wiederkehr') built on Oct 31 2010 21:52:48
Writing library                  : libebml v1.0.0 + libmatroska v1.0.0

Video
ID                               : 1
Format                           : AVC
Format/Info                      : Advanced Video Codec
Format profile                   : High@L4.1
Format settings, CABAC           : Yes
Format settings, ReFrames        : 3 frames
Muxing mode                      : Container profile=Unknown@4.1
Codec ID                         : V_MPEG4/ISO/AVC
Duration                         : 2h 3mn
Bit rate mode                    : Variable
Bit rate                         : 3 978 Kbps
Maximum bit rate                 : 40.0 Mbps
Width                            : 1 280 pixels
Height                           : 544 pixels
Display aspect ratio             : 2.35:1
Frame rate                       : 23.976 fps
Color space                      : YUV
Chroma subsampling               : 4:2:0
Bit depth                        : 8 bits
Scan type                        : Progressive
Bits/(Pixel*Frame)               : 0.238
Stream size                      : 3.35 GiB (77%)
Title                            : BDRip720p by Pitt@Sk8
Writing library                  : x264 core 112 r1867 22bfd31
Encoding settings                : cabac=1 / ref=3 / deblock=1:0:0 / analyse=0x3:0x133 / me=hex / subme=7 / psy=1 / psy_rd=1.00:0.00 / mixed_ref=1 / me_range=16 / chroma_me=1 / trellis=1 / 8x8dct=1 / cqm=0 / deadzone=21,11 / fast_pskip=1 / chroma_qp_offset=-2 / threads=6 / sliced_threads=0 / slices=4 / nr=0 / decimate=1 / interlaced=0 / constrained_intra=0 / bframes=3 / b_pyramid=1 / b_adapt=1 / b_bias=0 / direct=1 / weightb=1 / open_gop=2 / weightp=2 / keyint=240 / keyint_min=23 / scenecut=40 / intra_refresh=0 / rc_lookahead=40 / rc=2pass / mbtree=1 / bitrate=3978 / ratetol=1.0 / qcomp=0.60 / qpmin=10 / qpmax=51 / qpstep=4 / cplxblur=20.0 / qblur=0.5 / vbv_maxrate=40000 / vbv_bufsize=40000 / nal_hrd=vbr / ip_ratio=1.40 / aq=1:1.00

Audio #1
ID                               : 2
Format                           : AC-3
Format/Info                      : Audio Coding 3
Mode extension                   : CM (complete main)
Codec ID                         : A_AC3
Duration                         : 2h 3mn
Bit rate mode                    : Constant
Bit rate                         : 640 Kbps
Channel(s)                       : 6 channels
Channel positions                : Front: L C R, Side: L R, LFE
Sampling rate                    : 48.0 KHz
Bit depth                        : 16 bits
Stream size                      : 565 MiB (13%)
Title                            : Italiano AC3 5.1 640 kbps - Pitt@Sk8
Language                         : Italian

Audio #2
ID                               : 3
Format                           : AC-3
Format/Info                      : Audio Coding 3
Mode extension                   : CM (complete main)
Codec ID                         : A_AC3
Duration                         : 2h 3mn
Bit rate mode                    : Constant
Bit rate                         : 448 Kbps
Channel(s)                       : 6 channels
Channel positions                : Front: L C R, Side: L R, LFE
Sampling rate                    : 48.0 KHz
Bit depth                        : 16 bits
Stream size                      : 396 MiB (9%)
Title                            : English AC3 5.1 448 kbps - Pitt@Sk8
Language                         : English

Text #1
ID                               : 4
Format                           : UTF-8
Codec ID                         : S_TEXT/UTF8
Codec ID/Info                    : UTF-8 Plain Text
Title                            : Vuoto - Pitt@Sk8
Language                         : Italian

Text #2
ID                               : 5
Format                           : VobSub
Codec ID                         : S_VOBSUB
Codec ID/Info                    : The same subtitle format used on DVDs
Title                            : Sottotitoli - Italiano
Language                         : Italian

Text #3
ID                               : 6
Format                           : VobSub
Codec ID                         : S_VOBSUB
Codec ID/Info                    : The same subtitle format used on DVDs
Title                            : Subtitle - English [deaf]
Language                         : English

Menu
00:00:00.000                     : en:Titoli di testa
00:03:03.517                     : en:Mi chiamo George Jung
00:07:00.003                     : en:Estate 1968
00:13:09.122                     : en:Coast to Coast
00:18:51.630                     : en:Dov'è Pot?
00:25:08.132                     : en:Cena di famiglia
00:27:45.497                     : en:Chicago 1972
00:32:00.836                     : en:Una vista a casa
00:36:56.047                     : en:Diego
00:44:00.805                     : en:Colombia 1976
00:50:19.350                     : en:Un favore
00:55:34.998                     : en:Pablo
01:03:57.625                     : en:Mirtha
01:09:02.847                     : en:Una visita di famiglia
01:11:42.089                     : en:La mossa di Diego
01:17:08.290                     : en:Non più fratelli
01:20:55.184                     : en:Kristina
01:26:08.789                     : en:Buon compleanno
01:28:58.959                     : en:Ancora in fuga
01:32:59.532                     : en:Florida 1987
01:38:02.794                     : en:Il cuore di George
01:42:31.854                     : en:L'ultimo colpo
01:49:22.723                     : en:Un messaggio per la famiglia
01:53:48.822                     : en:Un visitatore
01:57:59.072                     : en:Titoli di coda

Join www.nautilus-bt.org
